<svg width="10" height="7" viewBox="0 0 10 7" fill="none" xmlns="http://www.w3.org/2000/svg">
<path d="M1.70711 0.710374C1.31658 0.319849 0.683418 0.319849 0.292893 0.710374C-0.0976311 1.1009 -0.0976311 1.73406 0.292893 2.12459L1.70711 0.710374ZM5 5.41748L4.29289 6.12459C4.68342 6.51511 5.31658 6.51511 5.70711 6.12459L5 5.41748ZM9.70711 2.12459C10.0976 1.73406 10.0976 1.1009 9.70711 0.710374C9.31658 0.319849 8.68342 0.319849 8.29289 0.710374L9.70711 2.12459ZM0.292893 2.12459L4.29289 6.12459L5.70711 4.71037L1.70711 0.710374L0.292893 2.12459ZM5.70711 6.12459L9.70711 2.12459L8.29289 0.710374L4.29289 4.71037L5.70711 6.12459Z" fill="#F7C56E"/>
</svg>
