<svg width="22" height="22" viewBox="0 0 22 22" fill="none" xmlns="http://www.w3.org/2000/svg">
<path fill-rule="evenodd" clip-rule="evenodd" d="M2.81818 1.625C2.50173 1.625 2.19824 1.75071 1.97447 1.97447C1.75071 2.19824 1.625 2.50173 1.625 2.81818V19.1818C1.625 19.4983 1.75071 19.8018 1.97447 20.0255C2.19824 20.2493 2.50173 20.375 2.81818 20.375H19.1818C19.4983 20.375 19.8018 20.2493 20.0255 20.0255C20.2493 19.8018 20.375 19.4983 20.375 19.1818V2.81818C20.375 2.50173 20.2493 2.19824 20.0255 1.97447C19.8018 1.75071 19.4983 1.625 19.1818 1.625H2.81818ZM1.09059 1.09059C1.54878 0.632406 2.17021 0.375 2.81818 0.375H19.1818C19.8298 0.375 20.4512 0.632406 20.9094 1.09059C21.3676 1.54878 21.625 2.17021 21.625 2.81818V19.1818C21.625 19.8298 21.3676 20.4512 20.9094 20.9094C20.4512 21.3676 19.8298 21.625 19.1818 21.625H2.81818C2.17021 21.625 1.54878 21.3676 1.09059 20.9094C0.632406 20.4512 0.375 19.8298 0.375 19.1818V2.81818C0.375 2.17021 0.632406 1.54878 1.09059 1.09059Z" fill="white"/>
<path fill-rule="evenodd" clip-rule="evenodd" d="M6.4549 4.01123C6.80008 4.01123 7.0799 4.29105 7.0799 4.63623V5.82941H8.27308C8.61826 5.82941 8.89808 6.10923 8.89808 6.45441C8.89808 6.79959 8.61826 7.07941 8.27308 7.07941H7.0799V8.27259C7.0799 8.61777 6.80008 8.89759 6.4549 8.89759C6.10972 8.89759 5.8299 8.61777 5.8299 8.27259V7.07941H4.63672C4.29154 7.07941 4.01172 6.79959 4.01172 6.45441C4.01172 6.10923 4.29154 5.82941 4.63672 5.82941H5.8299V4.63623C5.8299 4.29105 6.10972 4.01123 6.4549 4.01123ZM13.1026 6.45441C13.1026 6.10923 13.3824 5.82941 13.7276 5.82941H17.364C17.7092 5.82941 17.989 6.10923 17.989 6.45441C17.989 6.79959 17.7092 7.07941 17.364 7.07941H13.7276C13.3824 7.07941 13.1026 6.79959 13.1026 6.45441ZM13.1026 14.1817C13.1026 13.8365 13.3824 13.5567 13.7276 13.5567H17.364C17.7092 13.5567 17.989 13.8365 17.989 14.1817C17.989 14.5269 17.7092 14.8067 17.364 14.8067H13.7276C13.3824 14.8067 13.1026 14.5269 13.1026 14.1817ZM4.7275 13.8179C4.97158 13.5738 5.36731 13.5738 5.61139 13.8179L6.45506 14.6616L7.29948 13.8178C7.54364 13.5738 7.93937 13.5739 8.18336 13.8181C8.42735 14.0622 8.42721 14.458 8.18305 14.702L7.3391 15.5453L8.18305 16.3887C8.42721 16.6327 8.42735 17.0284 8.18336 17.2726C7.93937 17.5167 7.54364 17.5169 7.29948 17.2729L6.45506 16.4291L5.61139 17.2727C5.36731 17.5168 4.97158 17.5168 4.7275 17.2727C4.48343 17.0286 4.48343 16.6329 4.7275 16.3888L5.57102 15.5453L4.7275 14.7018C4.48343 14.4577 4.48343 14.062 4.7275 13.8179ZM13.1026 16.909C13.1026 16.5638 13.3824 16.284 13.7276 16.284H17.364C17.7092 16.284 17.989 16.5638 17.989 16.909C17.989 17.2541 17.7092 17.534 17.364 17.534H13.7276C13.3824 17.534 13.1026 17.2541 13.1026 16.909Z" fill="white"/>
</svg>
