<svg width="20" height="20" viewBox="0 0 20 20" fill="none" xmlns="http://www.w3.org/2000/svg">
<path d="M5.61446 0.174098C4.31613 -0.155479 2.95538 -0.0156586 1.88925 0.581075C0.803141 1.1878 0.041619 2.26391 0.00416716 3.70331C-0.0532591 5.95292 0.467322 8.97155 2.53467 12.5145C4.57579 16.0138 6.82915 18.1111 8.69925 19.357C9.88023 20.1447 11.1848 20.1659 12.2996 19.6528C13.3982 19.1472 14.2896 18.1373 14.7527 16.8851C14.868 16.5737 14.9143 16.241 14.8884 15.9099C14.8626 15.5788 14.7652 15.2573 14.6029 14.9676L13.4119 12.8428C13.0458 12.1889 12.4566 11.6885 11.752 11.4331C11.0474 11.1778 10.2744 11.1845 9.57437 11.4521L8.74294 11.7705C8.33971 11.924 7.96894 11.8528 7.75921 11.6456C7.05386 10.9528 6.54951 10.0127 6.32105 8.99901C6.24865 8.67942 6.39596 8.30241 6.748 8.0365L7.49829 7.46973C8.10485 7.01202 8.52359 6.34874 8.67598 5.6043C8.82836 4.85986 8.70391 4.0854 8.32598 3.42617L7.11254 1.31014C6.95178 1.02999 6.73631 0.785047 6.47894 0.58988C6.22158 0.394714 5.92759 0.253315 5.61446 0.174098V0.174098ZM1.25256 3.73702C1.27753 2.77076 1.7669 2.0804 2.49846 1.67092C3.25 1.25022 4.27618 1.12163 5.30735 1.38379C5.45845 1.42196 5.60032 1.49015 5.7245 1.5843C5.84869 1.67846 5.95264 1.79665 6.03018 1.93184L7.24237 4.04787C7.46909 4.44324 7.54384 4.90773 7.4526 5.35428C7.36137 5.80082 7.1104 6.19876 6.74676 6.47351L5.99647 7.04028C5.3473 7.52965 4.89788 8.36857 5.10262 9.27366C5.37976 10.4996 5.99272 11.6618 6.88408 12.537C7.53574 13.1761 8.46455 13.2136 9.18862 12.9365L10.0201 12.6181C10.4401 12.4573 10.904 12.4531 11.327 12.6062C11.7499 12.7593 12.1036 13.0596 12.3233 13.452L13.5131 15.5781C13.6629 15.8452 13.6878 16.1648 13.5817 16.4519C13.2197 17.4319 12.5393 18.1672 11.7778 18.518C11.0325 18.8613 10.1898 18.8514 9.39211 18.3183C7.68056 17.1773 5.55953 15.221 3.61203 11.8853C1.66329 8.5396 1.20138 5.75068 1.25381 3.73702H1.25256ZM13.3645 0.106684C13.2198 0.0262282 13.0491 0.00654473 12.8899 0.051964C12.7307 0.0973832 12.5961 0.204185 12.5156 0.348873C12.4351 0.493562 12.4155 0.664285 12.4609 0.823487C12.5063 0.982688 12.6131 1.11733 12.7578 1.19778L13.2372 1.46494C14.7348 2.29688 16.0087 3.47904 16.95 4.9104C17.8913 6.34175 18.4721 7.97974 18.6427 9.68438L18.6827 10.0776C18.6874 10.1618 18.7091 10.2441 18.7465 10.3197C18.7839 10.3952 18.8362 10.4624 18.9003 10.5172C18.9644 10.572 19.0389 10.6132 19.1193 10.6384C19.1998 10.6636 19.2845 10.6722 19.3684 10.6638C19.4523 10.6554 19.5336 10.63 19.6074 10.5893C19.6812 10.5486 19.746 10.4933 19.7979 10.4269C19.8498 10.3605 19.8876 10.2842 19.9092 10.2027C19.9308 10.1212 19.9357 10.0362 19.9236 9.95279L19.8849 9.56079C19.6944 7.65523 19.0453 5.82413 17.9931 4.22404C16.9408 2.62396 15.5168 1.30248 13.8426 0.372593L13.3645 0.106684V0.106684ZM11.9014 3.45239C11.9867 3.31053 12.1248 3.20836 12.2854 3.16832C12.446 3.12829 12.6159 3.15368 12.7578 3.23891L12.9126 3.33129C13.9203 3.93546 14.7848 4.75125 15.4463 5.72227C16.1078 6.6933 16.5505 7.7964 16.7439 8.95532L16.7988 9.28864C16.8146 9.37038 16.8138 9.45443 16.7965 9.53586C16.7792 9.61729 16.7459 9.69444 16.6984 9.76278C16.6508 9.83112 16.5901 9.88926 16.5198 9.9338C16.4495 9.97833 16.371 10.0083 16.2889 10.0221C16.2068 10.0358 16.1228 10.033 16.0418 10.0138C15.9608 9.99458 15.8845 9.95936 15.8173 9.91022C15.7501 9.86107 15.6935 9.79898 15.6506 9.72761C15.6078 9.65624 15.5797 9.57702 15.5679 9.49462L15.5117 9.1613C15.3484 8.18086 14.9741 7.24758 14.4148 6.42594C13.8555 5.6043 13.1244 4.91389 12.2722 4.40242L12.1174 4.30879C12.047 4.26666 11.9857 4.2111 11.9368 4.14526C11.8879 4.07942 11.8525 4.0046 11.8326 3.92507C11.8126 3.84554 11.8086 3.76286 11.8206 3.68176C11.8326 3.60065 11.8605 3.52271 11.9026 3.45239H11.9014Z" fill="white"/>
</svg>
