<svg width="24" height="24" viewBox="0 0 24 24" fill="none" xmlns="http://www.w3.org/2000/svg">
<path d="M22.5604 1.43398C20.6489 -0.4779 17.5099 -0.478088 15.5983 1.43398L8.40166 8.63287C8.40157 8.63297 8.40152 8.63301 8.40142 8.63311L1.43958 15.5965C-0.47986 17.5163 -0.47986 20.6403 1.43958 22.5601C3.35902 24.4799 6.48222 24.48 8.40171 22.5601L15.3634 15.5969C15.3635 15.5968 15.3637 15.5966 15.3638 15.5964L22.5604 8.39765C24.4799 6.47775 24.4799 3.35388 22.5604 1.43398ZM7.40711 21.5653C6.03601 22.9366 3.80518 22.9366 2.43413 21.5653C1.06308 20.194 1.06308 17.9626 2.43413 16.5913L9.3963 9.62763C10.9652 8.05839 13.5821 8.31255 14.8164 10.175L13.7873 11.2044C13.1577 9.88907 11.4153 9.59781 10.3909 10.6224L3.42877 17.5861C2.60616 18.4088 2.60616 19.7477 3.42877 20.5705C4.25138 21.3933 5.5899 21.3933 6.41256 20.5705L10.2275 16.7546C10.7545 16.9423 11.3271 17.0442 11.9334 17.038L7.40711 21.5653ZM12.38 12.6121C12.1059 12.8863 11.6597 12.8863 11.3854 12.6121C11.1106 12.3371 11.1106 11.8922 11.3854 11.6173C11.6597 11.343 12.1058 11.343 12.38 11.6173C12.6549 11.8921 12.6549 12.3371 12.38 12.6121ZM8.93421 16.0586L5.41792 19.5757C5.1437 19.85 4.69754 19.85 4.42332 19.5757C4.14915 19.3014 4.1491 18.8552 4.42332 18.5809L7.94041 15.063C8.22044 15.4368 8.54758 15.7682 8.93421 16.0586ZM21.5658 7.40289L14.3693 14.6016C14.3693 14.6016 14.3692 14.6017 14.3692 14.6017L14.369 14.6019C12.7988 16.1722 10.1812 15.9137 8.94897 14.0542L9.97816 13.0247C10.6076 14.3399 12.3497 14.6315 13.3743 13.6071C13.3744 13.607 13.3745 13.6069 13.3746 13.6068C13.3747 13.6067 13.3747 13.6067 13.3748 13.6066L20.5713 6.40803C21.3939 5.58524 21.3939 4.24644 20.5713 3.42365C19.7487 2.60086 18.4101 2.60086 17.5874 3.4237L13.538 7.47462C12.9951 7.28127 12.4218 7.18529 11.832 7.19125L16.5928 2.42879C17.9546 1.06678 20.2039 1.06664 21.5658 2.42879C22.9369 3.80018 22.9369 6.0315 21.5658 7.40289ZM14.8313 8.17058L18.5821 4.41841C18.8563 4.14413 19.3025 4.14418 19.5767 4.41841C19.8509 4.69269 19.8509 5.13894 19.5767 5.41327L15.825 9.16605C15.5469 8.79486 15.2203 8.46287 14.8313 8.17058Z" fill="#008383"/>
</svg>
