<svg width="20" height="21" viewBox="0 0 20 21" fill="none" xmlns="http://www.w3.org/2000/svg">
<path fill-rule="evenodd" clip-rule="evenodd" d="M0 3.31222C0 1.7135 1.29602 0.41748 2.89474 0.41748H5.64593C6.87265 0.41748 7.97577 1.16433 8.43136 2.30331L9.48563 4.93897C9.89487 5.96207 9.71029 7.12718 9.00486 7.97369L8.43747 8.65456C8.10637 9.05189 8.13287 9.63614 8.49859 10.0019L10.4156 11.9189C10.7813 12.2846 11.3656 12.3111 11.7629 11.98L12.4438 11.4126C13.2903 10.7072 14.4554 10.5226 15.4785 10.9319L18.1142 11.9861C19.2531 12.4417 20 13.5448 20 14.7715V17.5227C20 19.1215 18.704 20.4175 17.1053 20.4175C7.65829 20.4175 0 12.7592 0 3.31222ZM2.89474 2.41748C2.40059 2.41748 2 2.81807 2 3.31222C2 11.6546 8.76286 18.4175 17.1053 18.4175C17.5994 18.4175 18 18.0169 18 17.5227V14.7715C18 14.3626 17.751 13.9949 17.3714 13.8431L14.7357 12.7888C14.3947 12.6524 14.0063 12.7139 13.7242 12.9491L13.0433 13.5165C11.8513 14.5098 10.0986 14.4303 9.00141 13.3331L7.08437 11.4161C5.98722 10.3189 5.90771 8.56618 6.90103 7.3742L7.46842 6.69333C7.70356 6.41116 7.76509 6.02279 7.62867 5.68175L6.57441 3.04609C6.42255 2.66643 6.05484 2.41748 5.64593 2.41748H2.89474Z" fill="#F7C56E"/>
</svg>
