<svg width="19" height="19" viewBox="0 0 19 19" fill="none" xmlns="http://www.w3.org/2000/svg">
<path d="M16.1696 2.88839C14.4543 1.12262 12.0831 0.164062 9.66146 0.164062C4.51551 0.164062 0.378575 4.35145 0.429026 9.44695C0.429026 11.0614 0.88308 12.6253 1.63984 14.0379L0.328125 18.8307L5.22182 17.5695C6.58398 18.3262 8.09749 18.6794 9.61101 18.6794C14.7065 18.6794 18.8434 14.492 18.8434 9.39649C18.8434 6.92442 17.8849 4.6037 16.1696 2.88839ZM9.66146 17.1154C8.2993 17.1154 6.93713 16.7623 5.77677 16.056L5.47407 15.9046L2.54794 16.6614L3.3047 13.7857L3.1029 13.483C0.88308 9.901 1.94254 5.15866 5.57497 2.93884C9.2074 0.719017 13.8993 1.77848 16.1191 5.41091C18.3389 9.04334 17.2795 13.7352 13.647 15.9551C12.4867 16.7118 11.0741 17.1154 9.66146 17.1154ZM14.1011 11.5154L13.5461 11.2632C13.5461 11.2632 12.7389 10.91 12.2344 10.6578C12.184 10.6578 12.1335 10.6073 12.0831 10.6073C11.9317 10.6073 11.8308 10.6578 11.7299 10.7082C11.7299 10.7082 11.6795 10.7587 10.9732 11.5659C10.9227 11.6668 10.8218 11.7172 10.7209 11.7172H10.6705C10.62 11.7172 10.5191 11.6668 10.4687 11.6163L10.2164 11.5154C9.66146 11.2632 9.15695 10.9605 8.75335 10.5569C8.65245 10.456 8.5011 10.3551 8.4002 10.2542C8.04704 9.901 7.69389 9.4974 7.44164 9.04334L7.39119 8.94244C7.34074 8.89199 7.34074 8.84154 7.29029 8.74064C7.29029 8.63974 7.29029 8.53884 7.34074 8.48839C7.34074 8.48839 7.54254 8.23613 7.69389 8.08478C7.79479 7.98388 7.84524 7.83253 7.94614 7.73163C8.04704 7.58028 8.09749 7.37848 8.04704 7.22713C7.99659 6.97487 7.39119 5.61271 7.23984 5.31001C7.13894 5.15866 7.03803 5.10821 6.88668 5.05776H6.73533C6.63443 5.05776 6.48308 5.05776 6.33173 5.05776C6.23083 5.05776 6.12993 5.10821 6.02903 5.10821L5.97858 5.15866C5.87767 5.20911 5.77677 5.31001 5.67587 5.36046C5.57497 5.46136 5.52452 5.56226 5.42362 5.66316C5.07047 6.11722 4.86867 6.67217 4.86867 7.22713C4.86867 7.63073 4.96957 8.03433 5.12092 8.38749L5.17137 8.53884C5.62542 9.4974 6.23083 10.3551 7.03803 11.1118L7.23984 11.3136C7.39119 11.465 7.54254 11.5659 7.64344 11.7172C8.7029 12.6253 9.91371 13.2812 11.2759 13.6343C11.4272 13.6848 11.629 13.6848 11.7804 13.7352C11.9317 13.7352 12.1335 13.7352 12.2849 13.7352C12.5371 13.7352 12.8398 13.6343 13.0416 13.5334C13.193 13.4325 13.2939 13.4325 13.3948 13.3316L13.4957 13.2307C13.5966 13.1298 13.6975 13.0794 13.7984 12.9785C13.8993 12.8776 14.0002 12.7767 14.0506 12.6758C14.1515 12.474 14.202 12.2217 14.2524 11.9695C14.2524 11.8686 14.2524 11.7172 14.2524 11.6163C14.2524 11.6163 14.202 11.5659 14.1011 11.5154Z" fill="white"/>
</svg>
