<svg width="214" height="54" viewBox="0 0 214 54" fill="none" xmlns="http://www.w3.org/2000/svg">
<path d="M58.5544 35.998H61.7088V21.2339H70.9014V18.2759H58.5544V35.998Z" fill="#12B4B4"/>
<path d="M97.5368 26.8663L105.647 18.2757H101.411L94.509 25.6621L94.0291 26.2162V18.2539H90.9009V35.9978H94.0291V27.6472L94.5134 28.1751L102.231 35.9978H106.585L97.5368 26.8663Z" fill="#12B4B4"/>
<path d="M76.4336 31.5083V18.3062H73.2923L73.3054 36.0021H77.2713L84.5966 24.2441V36.0021H87.7248V18.3062H84.5617L76.4336 31.5083Z" fill="#12B4B4"/>
<path d="M128.278 19.2442C127.741 18.8166 127.091 18.4763 126.336 18.2232C125.625 18.0095 124.827 17.9004 123.963 17.9004H118.012C117.166 17.9004 116.376 18.0095 115.656 18.2232C114.984 18.4239 114.33 18.7642 113.684 19.2485C113.091 19.7284 112.633 20.3349 112.327 21.0242C112.017 21.6743 111.843 22.4858 111.817 23.45V28.0659C111.817 29.1828 112.083 30.1732 112.615 31.0065C113.134 31.8006 113.858 32.4288 114.779 32.8869C115.621 33.2752 116.611 33.4847 117.733 33.5108H119.421V35.9977H122.549V33.5108H124.233C125.298 33.5108 126.288 33.3014 127.157 32.8869C128.06 32.4812 128.801 31.8486 129.364 30.9934C129.888 30.1689 130.15 29.1828 130.15 28.0616V23.4456C130.15 22.5294 129.992 21.7179 129.67 21.0199C129.329 20.3174 128.862 19.7197 128.278 19.2442ZM127.017 23.4762V28.0398C127.017 28.9647 126.733 29.6104 126.14 30.0162C125.49 30.4743 124.63 30.7055 123.588 30.7055H122.549V20.7843H123.81C124.836 20.7843 125.643 21.0111 126.219 21.4605C126.755 21.8663 127.017 22.5251 127.017 23.4762ZM119.417 30.7055H118.37C117.724 30.7055 117.1 30.6008 116.533 30.4044C116.053 30.2212 115.673 29.942 115.372 29.545C115.08 29.1523 114.936 28.6593 114.936 28.0398V23.4762C114.936 22.5294 115.198 21.8706 115.743 21.4562C116.315 21.0111 117.122 20.7843 118.147 20.7843H119.412L119.417 30.7055Z" fill="white"/>
<path d="M160.493 25.54H152.204V18.2583H149.076V36.0022H152.204V28.4718H160.493V36.0022H163.626V18.2583H160.493V25.54Z" fill="white"/>
<path d="M171.532 18.2842L165.07 36.0063H168.43L169.686 32.6381H177.068L178.346 36.0063H181.688L175.074 18.2842H171.532ZM176.047 29.7237H170.655L173.342 22.2239L176.047 29.7237Z" fill="white"/>
<path d="M194.424 25.54H186.134V18.2583H183.006V36.0022H186.134V28.4718H194.424V36.0022H197.556V18.2583H194.424V25.54Z" fill="white"/>
<path d="M210.92 29.2132V29.8676C210.92 30.8013 210.881 31.5517 210.802 32.0622C210.741 32.4068 210.619 32.6599 210.418 32.8257C210.296 32.9347 210.034 33.0831 209.48 33.1529C208.821 33.2314 207.936 33.2707 206.845 33.2707C205.641 33.2707 204.759 33.2052 204.227 33.0743C203.782 32.9609 203.485 32.7733 203.307 32.481C203.167 32.2716 202.984 31.8396 202.896 30.9889C202.835 30.3083 202.805 29.0387 202.805 27.2106C202.805 25.7054 202.835 24.4358 202.896 23.4629C202.988 22.5816 203.163 22.1671 203.32 21.9402C203.499 21.6479 203.791 21.456 204.218 21.3512C204.772 21.216 205.658 21.1462 206.845 21.1462C207.888 21.1462 208.721 21.1855 209.288 21.2553C209.864 21.36 210.091 21.5127 210.152 21.5737C210.331 21.7701 210.431 21.9621 210.462 22.1846C210.514 22.4594 210.593 23.1531 210.702 24.2438L210.758 24.8328H213.812L213.782 24.1479C213.725 22.8957 213.62 21.9708 213.476 21.3512C213.332 20.6052 213.001 19.9769 212.508 19.4883C212.028 18.9996 211.33 18.6681 210.383 18.4717C209.567 18.2972 208.411 18.21 206.854 18.21C205.126 18.21 203.9 18.3059 203.128 18.4935C202.177 18.6899 201.426 19.1349 200.911 19.8024C200.392 20.435 200.047 21.3469 199.886 22.5118C199.733 23.6025 199.659 25.1819 199.659 27.2106C199.681 29.235 199.76 30.8013 199.886 31.8702C200.047 33.07 200.383 33.9644 200.907 34.6057C201.444 35.2645 202.198 35.6964 203.132 35.8928C203.952 36.0847 205.165 36.1807 206.849 36.1807C208.385 36.1807 209.615 36.1022 210.51 35.9495C211.422 35.7837 212.155 35.4608 212.696 34.9809C213.223 34.5097 213.581 33.8335 213.764 32.9784C213.921 32.2236 214 31.207 214 29.872V29.2175L210.92 29.2132Z" fill="white"/>
<path d="M135.608 31.5083V18.3062H132.462L132.475 36.0021H136.445L143.77 24.2441V36.0021H146.899V18.3062H143.736L135.608 31.5083Z" fill="white"/>
<path d="M6.18222 35.8403V18.8163L0 15.3608V39.492L24.1355 53.0912V45.9535L6.18222 35.8403Z" fill="white"/>
<path d="M48.703 14.5627L24.6111 0.985352L0.514832 14.5627L6.66651 17.9963L24.6111 7.88745L42.5513 17.9963L48.703 14.5627Z" fill="white"/>
<path d="M43.0356 18.8163V35.8403L25.0867 45.9535V53.0912L49.2222 39.492V15.3608L43.0356 18.8163Z" fill="#D6D6D6"/>
<path d="M19.8206 25.2347L12.7309 21.2383V33.1141L13.4682 33.5329L19.8206 25.2347Z" fill="#12B4B4"/>
<path d="M18.2762 36.2379L24.6111 39.8111V27.9658L18.2762 36.2379Z" fill="#12B4B4"/>
<path d="M32.7871 29.1133L36.4869 21.2383L24.6111 27.931V39.8111L36.4869 33.1141L32.7871 29.1133Z" fill="#136763"/>
<path d="M36.4869 21.2381H36.4825L24.6111 14.5454L12.7353 21.2381H12.7309H12.7353L19.8162 25.2301L24.6111 22.5295L29.4059 25.2301L36.4825 21.2381H36.4869Z" fill="#12B4B4"/>
</svg>
